<?xml version="1.0" encoding="iso-8859-1"?>
<!-- Generator: Adobe Illustrator 19.0.0, SVG Export Plug-In . SVG Version: 6.00 Build 0)  -->
<svg version="1.1" id="Capa_1" xmlns="http://www.w3.org/2000/svg" xmlns:xlink="http://www.w3.org/1999/xlink" x="0px" y="0px"
	 viewBox="0 0 488.225 488.225" style="enable-background:new 0 0 488.225 488.225;" xml:space="preserve">
<g>
	<g>
		<path d="M482,452.9L371.3,342.2c29.7-36.1,47.5-82.4,47.5-132.8C418.8,93.8,325.1,0,209.4,0S0,93.8,0,209.5
			s93.8,209.3,209.4,209.3c50.4,0,96.6-17.8,132.8-47.5L452.9,482c8.3,8.3,20.8,8.3,29.1,0C490.3,473.7,490.3,461.2,482,452.9z
			 M208.9,378.3c-93.2,0-168.8-75.6-168.8-168.8S115.7,40.7,208.9,40.7s168.8,75.6,168.8,168.8S302.1,378.3,208.9,378.3z"/>
		<path d="M324.9,163.7c-4.2-10.4-15.6-15.6-26-11.4l-2.5,1c-7.5-11.3-17-20.9-28-28.6l1.4-3.6c4.2-10.4,0-22.9-10.4-27
			c-10.4-4.2-22.9,0-27,10.4l-1.8,4.3c-6.9-1.4-13.9-2.2-21.1-2.2c-6.4,0-12.7,0.6-18.8,1.7l-1-2.7c-4.2-10.4-15.6-15.6-26-11.4
			s-15.6,15.6-11.4,26l1,2.6c-11.3,7.2-21.3,16.5-29.1,27.8l-3.1-1.3c-10.4-4.2-22.9,0-27,10.4c-4.2,10.4,0,22.9,10.4,27l3.4,1.4
			c-2.9,13.4-3.2,27.2-0.6,40.9l-2.8,1c-10.4,4.2-15.6,15.6-11.4,26c4.2,10.4,15.6,15.6,26,11.4l3.2-1.2c7.4,11.4,16.9,21.1,28,28.9
			l-1,2.3c-4.2,10.4,0,22.9,10.4,27c10.4,4.2,22.9,0,27-10.4l1.2-2.8c7.1,1.5,14.2,2.3,21.7,2.3c6.4,0,12.7-0.6,18.8-1.7l1,2.4
			c4.2,10.4,15.6,15.6,26,11.4s15.6-15.6,11.4-26l-1.1-2.6c11.3-7.2,21.2-16.6,29.1-27.6l2.2,0.9c10.4,4.2,22.9,0,27-10.4
			c4.2-10.4,0-22.9-10.4-27l-2.3-1c2.9-13.6,3.1-27.6,0.5-41.4l1.9-0.8C323.8,185.5,329,174.1,324.9,163.7z M208.9,275.8
			c-36.5,0-66.1-29.6-66.1-66.1s29.6-66.1,66.1-66.1s66.1,29.6,66.1,66.1C275,246.2,245.4,275.8,208.9,275.8z"/>
	</g>
</g>
<g>
</g>
<g>
</g>
<g>
</g>
<g>
</g>
<g>
</g>
<g>
</g>
<g>
</g>
<g>
</g>
<g>
</g>
<g>
</g>
<g>
</g>
<g>
</g>
<g>
</g>
<g>
</g>
<g>
</g>
</svg>
